<svg width="43" height="48" viewBox="0 0 43 48" fill="none" xmlns="http://www.w3.org/2000/svg">
<path d="M8.00407 33.2601C15.5336 40.8187 26.6121 43.4664 29.4498 43.942C27.5046 29.9093 14.5652 20.0299 0.800249 22.9729C-1.04907 39.6908 14.9183 52.1833 29.6511 45.9565C29.6507 45.9445 29.6495 45.933 29.6487 45.9212C14.0177 43.9289 8.00407 33.2601 8.00407 33.2601Z" fill="#287535"/>
<path d="M42.6943 22.9729C41.1278 22.6379 39.5059 22.4619 37.8447 22.4619C32.2556 22.4619 27.1159 24.4588 23.0323 27.7994C25.0984 29.7825 26.8516 32.1175 28.2115 34.7124C31.4254 32.8094 36.4087 29.5983 38.163 26.9786C35.9659 31.1584 33.3616 33.0732 28.9551 36.2509C30.1859 39.0061 30.9882 42.0148 31.2578 45.1908C38.1271 41.5587 42.8401 34.1219 42.8401 25.5291C42.8401 24.6638 42.787 23.8121 42.6943 22.9729Z" fill="#7ECB29"/>
<path d="M16.0133 14.2116L17.5407 23.5563C18.6513 24.0735 19.7168 24.6826 20.729 25.3732L17.9011 13.7925C20.0298 12.7628 21.3331 9.44645 20.6222 5.95314C19.8344 2.08091 16.8706 -0.541747 14.002 0.0951296C11.1335 0.732006 9.4472 4.3872 10.2349 8.25933C10.9458 11.753 13.428 14.2283 16.0133 14.2116Z" fill="#F58614"/>
<path d="M25.9284 14.4035L23.2954 25.1864C24.2943 24.5243 25.3319 23.947 26.4042 23.4606L27.816 14.8229C30.1616 14.7862 31.9249 12.151 32.6359 8.65748C32.8685 7.51412 33.4071 4.42436 33.0188 2.48671C32.9883 2.33279 32.8586 2.22242 32.7078 2.22242C32.5573 2.2222 32.4278 2.33203 32.396 2.48561L30.9435 9.62548C30.912 9.78059 30.8224 9.91657 30.6949 10.0026C30.5677 10.0893 30.4125 10.1193 30.2637 10.0865L30.2308 10.079C29.9213 10.0102 29.7238 9.69231 29.7892 9.36917L31.2352 2.26453C31.3069 1.91306 31.0924 1.56793 30.7559 1.49321L30.7446 1.49081C30.583 1.45493 30.4145 1.48753 30.2759 1.58149C30.1375 1.67535 30.0407 1.82303 30.0063 1.9916L28.5602 9.09613C28.5283 9.25169 28.4394 9.38711 28.3117 9.47375C28.1845 9.5605 28.0293 9.59058 27.8805 9.55744L27.848 9.55C27.5385 9.48119 27.3406 9.16341 27.4067 8.84016L28.852 1.73541C28.8863 1.56672 28.8549 1.3906 28.7653 1.2461C28.6751 1.10137 28.5337 0.999969 28.3726 0.96387C28.0297 0.888062 27.6932 1.11636 27.6206 1.47407L26.1774 8.56701C26.1458 8.72245 26.0564 8.85843 25.9289 8.94452C25.8013 9.03104 25.6459 9.06102 25.4977 9.0282L25.4648 9.02076C25.1553 8.95229 24.9578 8.63417 25.0234 8.3107L26.4825 1.14076C26.513 0.991764 26.4422 0.840582 26.3116 0.773525C26.1809 0.706359 26.0227 0.740599 25.9284 0.856663C24.7127 2.35642 23.9485 5.38404 23.6867 6.67038C22.9759 10.1639 23.5602 13.3206 25.9284 14.4035Z" fill="#F58614"/>
</svg>
